
<svg xmlns="http://www.w3.org/2000/svg"
     class="svg-snoweb svg-theme-dark"
     x="0"
     y="0"
     width="100%"
     height="100%"
     viewBox="0 0 100 100"
     preserveAspectRatio="xMidYMid meet"
>
<defs>
    <style>
        
            
            
            
        

        .svg-fill-primary {
            fill: #FFF;
        }

        .svg-fill-secondary {
            fill: #65CDAE;
        }

        .svg-fill-tertiary {
            fill: #37A987;
        }

        .svg-stroke-primary {
            stroke: #FFF;
        }

        .svg-stroke-secondary {
            stroke: #65CDAE;
        }

        .svg-stroke-tertiary {
            stroke: #37A987;
        }
    </style>
</defs>
    <path d="M50,81.7A31.7,31.7,0,1,0,18.3,50,31.7,31.7,0,0,0,50,81.7ZM38.1,46a3.9,3.9,0,0,0,4-3.9,4,4,0,0,0-4-4,3.9,3.9,0,0,0-3.9,4A3.8,3.8,0,0,0,38.1,46Zm27.7-3.9A3.8,3.8,0,0,1,61.9,46a3.9,3.9,0,0,1-4-3.9,4,4,0,0,1,4-4A3.9,3.9,0,0,1,65.8,42.1ZM64,64a3.9,3.9,0,0,0,0-5.6,4,4,0,0,0-5.6,0,12,12,0,0,1-16.8,0,4,4,0,0,0-5.6,0A3.9,3.9,0,0,0,36,64,19.9,19.9,0,0,0,64,64Z"
          class="svg-fill-primary" fill-rule="evenodd"/>
</svg>