<?xml version="1.0" encoding="UTF-8"?>
<svg version="1.1" viewBox="0 0 2048 2048" width="512" height="512" xmlns="http://www.w3.org/2000/svg">
<path transform="translate(145)" d="m0 0h1022l3 2 32 8 26 10 23 12 12 8 12 9 11 9 15 14 9 10 10 13 9 13 12 21 9 20 7 21 5 20 3 23 1 16v389l-2 17-5 13-7 11-10 10-11 7-13 5-9 2h-17l-12-3-14-7-12-11-7-8-8-16-2-9-1-32v-325l-1-50-3-16-6-16-8-15-8-10-6-7-14-11-14-8-16-6-16-3-14-1h-475l-62 1 36 12 46 15 38 13 30 10 23 11 14 9 13 10 15 14 11 13 10 15 7 12 8 19 6 21 3 19 1 15v1325l287-1 17-3 14-5 14-7 11-8 10-9 8-9 8-13 6-13 5-17 1-7 1-92v-307l2-14 5-14 9-13 9-9 13-8 12-4 5-1h21l14 4 12 7 10 9 7 8 8 16 2 8 1 9v394l-3 32-6 26-9 26-9 19-12 20-10 14-11 13-13 14-8 7-15 12-15 10-16 9-19 9-27 9-22 5-26 3h-291v88l-2 24-5 22-7 19-8 17-6 9-10 14-12 13-8 8-10 8-15 10-21 11-27 9-17 4h-55l-1-2-26-7-510-170-18-8-15-8-14-10-13-11-13-13-10-13-9-14-8-16-6-15-6-21-2-6v-1590l2-6 6-22 8-20 9-16 9-13 9-11 16-16 16-12 15-9 17-8 22-7zm22 128-12 3-10 6-6 5-7 11-3 10-1 28v1508l1 15 3 10 6 10 9 8 10 5 47 16 462 154 9 2h14l10-3 10-6 5-5 6-8 4-11 1-91v-1419l-1-44-4-11-8-11-10-7-24-9-40-13-41-14-72-24-46-15-38-13-36-12-46-15-41-14-43-14-38-13-43-14-14-4z"/>
<path transform="translate(1659,511)" d="m0 0h9l17 3 14 7 13 11 323 323 7 11 5 10 1 1v40h-2l-4 9-6 9-9 10-313 313h-2v2l-14 11-13 6-12 3h-18l-16-4-11-6-10-9-8-9-8-16-2-8-1-16 3-16 5-12 11-14 208-208v-1l-662-1-13-3-12-6-11-9-7-8-6-10-5-12-2-13 1-14 5-16 8-13 8-9 10-7 13-6 8-2 11-1h655l-9-9v-2l-4-2v-2h-2l-7-8-192-192-7-11-4-9-3-15v-9l3-16 5-12 9-12 7-7 11-7 12-5z"/>
</svg>
