<?xml version="1.0" encoding="UTF-8"?>
<svg version="1.1" viewBox="0 0 2048 1945" width="200" height="190" xmlns="http://www.w3.org/2000/svg">
<path transform="translate(736,214)" d="m0 0h71l23 3 20 5 18 8 9 6 10 9 9 9 7 8 10 6 19 7 10 2 41 4h57l34-4 12-3 16-6 10-6 8-12 9-10 16-10 17-8 13-4 15-3 9-1h77l32 4 25 5 35 10 27 10 25 11 19 10 13 8 15 10 11 9 13 12 9 9 11 14 7 12 5 14 1 4v16l-5 14-8 11-10 10-16 9-16 6-23 6-22 4-8 1h-45l-17-2-32-5-25-6-35-10-25-10-16-7-23-11-14-8-17-11-16-8-40-13-30-7-8-1-38-4h-61l-13 3-6 1h-14l-52 13-33 11-14 7-10 7-16 9-16 8-21 10-18 8-5 4-10 14-13 25-10 26-8 24-2 8v41l7 21 11 24 9 16 5 4 23 7 16 8 11 6 15 11 12 11 8 10 9 15 7 16 5 25 3 5v2l4 2 16 9 29 13 15 5 32 9 23 3 13 2h76l16-4 15-3 25-8 21-9 28-14 4-5 10-24 8-14 12-16 10-11 16-12 19-10 22-8 28-6 9-1h41l18 3 14 1 32 7 36 12 33 15 27 15 16 10 14 10 10 8 14 13 9 7 10 9 11 11 11 14 9 11 14 20 10 17 10 22 9 27 5 25 1 9v17l-3 17-2 13-6 16-7 13-10 13-21 21-13 9-17 8-21 7-20 5-16 2h-63l-10-3-4-3-4-1-2 2h-7l-27-8-23-8-23-10-16-8-17-9-17-11-17-12-16-13-10-9-7-7-8-7-7-7-14-11-16-13-17-10-18-10-19-9-27-10-21-6-27-6-21-4-39-1h-24l-32 1-48 6-27 5-30 8-24 8-21 9-27 14-10 7-12 11-13 12-11 9-13 10-14 10-13 9-23 13-25 13-25 10-15 5-36 10-15 3h-14l-10 2-14 3-7-1h-18l-6-3-20-1-19-5-15-5-25-13-12-9-10-9-10-11-10-16-6-12-6-18-4-20v-17l4-16v-14l8-26 9-20 11-22 11-17 12-16 9-11 41-41 14-11 33-22 17-10 16-9 15-8 9-7 10-10 13-18 17-32 7-19 8-25 2-14-1-37-5-20-5-11-6-9-21-2-9-3-24-2-15-5-22-11-10-6-9-8-8-14-2-7v-20l2-11 5-12 9-14 12-14 8-8 11-9 24-16 15-9 23-12 27-11 19-7 30-8 26-6 19-3z" fill="#134777"/>
<path transform="translate(1306,1521)" d="m0 0h73l63 1 17 3 21 7 10 6 10 9 8 9 7 11 1 5h2l1-9 6-16 9-12 13-9 11-4 85-1h33l137 1 4 1-1 7-6 12-10 13-11 9-14 6-11 2-38 1-133 1-1 11v26l3 9 8 1 145 1 36 3 14 3 10 5 10 9 6 10 4 11 4 20 1 11v20l-2 20-5 16-8 12-10 8-15 5-24 3-28 2-210 1h-77l-2-3-1-60-1-108-4-11-7-9-8-5-4-1-15-1h-116l-16 2-8 4-8 11-2 9-1 9-1 27-1 133-2 1-44 2-24 1-3-2-1-9v-25l1-64-212 1-20-1-2-2 1-9 8-16 6-10 8-10 8-8 8-4 115-1 4-1v-15l-2-13-4-12-5-1-26-1h-124l-12 2-9 5-7 8-3 6-1 5-1 23v77l4 13 4 5 6 4 15 4 137 1 35 1 14 2 10 5 8 8 7 12 6 17v7l-2 1-59 1-175 1-4-2-6-9v-2l-6 1-4 3-9 1-11-5-11-8-10-9-8-10-7-14-8-26-3-12-1-12h-2l2 10 1 15-4 18-6 15-7 11-9 10-8 7-14 7-17 5-16 3-17 2-16 1-116 1h-39l-1 61-2 14-11 13-8 6-11 3-25 2h-12l-2-2-1-6v-266l4-20 4-13 8-16 7-10 9-8 14-8 21-7 18-3 15-1h137l27 2 20 4 17 7 11 7 10 9 7 10 4 10 5 18 4 12 12-35 9-14 13-13 16-10 10-5 9-2 149-1h35l43 1 16 8 10 6 10 9 7 11 5 13 1 8-1 14 1 2h3l6-22 8-16 7-9 6-7 14-10 14-6 16-5 5-1zm-658 66-47 1-13 3-8 5-6 7-3 8-2 15v99h168l12-3 8-6 5-8 3-10 1-6v-75l-4-13-6-8-5-4-12-3-13-1zm188 29m0 2 1 23 1 3h2l-2-22zm687 28v78l1 1 83 1h98l41-1 7-3 3-3 3-11 1-7v-15l-2-13-2-1-15-1-160-1-20-2-13-4-8-5-10-9-5-4z" fill="#154878"/>
<path transform="translate(1603,386)" d="m0 0h80l20 7 16 6 17 8 18 11 27 18 10 8 13 11 10 9 10 10 2 1v2l4 2 6 6v2l4 2 9 10 9 9 11 14 14 19 12 18 13 23 13 27 6 17 9 28 6 36v22l-4 20-5 14-8 14-11 13-8 7-12 6-16 6-9 2h-20l-8 1-14-1-10-3-9-8-4 2-6 1-11-5-9-6-8-1-19-10-17-11-18-12-14-11-13-12-8-7-12-11-8-7-9-11-17-16-12-11-19-13-17-12-18-12-15-9-29-15-23-10-10-4-7-3-22-7-9-4-3-1h-16l-34-3h-45l-42 3h-30l-10 7-10 4-4-2-11 2-10 6-15 5-8 4-18 11-46 23-35 18-16 6h-6l-8 5-7 3-5 1-131 1-8-5-5-7-7 1-4 2-5-1-11-6-7-4-12-5-11-7-10-7-16-11-10-10-9-15-11-22-2-6v-44l4-13 12-22 7-9 17-17 20-14 16-9 22-10 20-5 10-5 5-1h123l24 8 17 6 23 11 17 11 15 11 10 9 16 14 21 11 5 2 18 4 15 6 21 2 25 4 26 6 76-1 11-3 10-3 19-3 19-1 11-4 5-4 5-2h15l10-4 6-5 14-7 15-11 9-9 6-11 6-19 5-9 9-10 5-5 9-8 10-6z" fill="#F5C71A"/>
<path transform="translate(985,925)" d="m0 0h57l25 5 20 5 24 9 23 11 27 18 12 9 10 9 8 7 11 12 14 19 12 18 13 25 7 19 6 19 7 33 1 8v49l-4 23-5 20-8 24-14 29-11 18-12 16-12 14-17 17-14 11-24 16-27 14-21 8-23 6-19 4-8 1-31 1h-19l-17-1-8-2-21-4-32-11-20-9-19-11-12-9-14-12-7-7-8-7-16-17-11-14-10-15-12-22-9-23-7-23-6-26v-73l7-28 9-27 12-24 10-18 9-13 9-12 14-15 12-12 8-7 13-10 15-10 22-12 21-9 21-6 13-3 17-3z" fill="#134777"/>
<path transform="translate(382,382)" d="m0 0h37l16 4 12 5 11 7 8 7 9 12 8 16 4 13 3 15 1 10-1 10-3 8 1 17-4 18-13 38-8 18-10 19-9 15-10 14-13 19-12 16-12 14-15 16-15 15-8 7-16 13-17 13-15 10-20 12-17 9-26 10-19 6-20 5-6 1h-28l-26-7-12-6-10-9-8-8-9-14-6-14-4-15-1-7v-28l8-38 6-20 7-17 9-20 10-19 12-20 11-15 12-16 9-11 11-12 47-47 14-11 17-12 17-11 21-12 20-9 27-9z" fill="#134777"/>
<path transform="translate(1306,1521)" d="m0 0h73l63 1 17 3 21 7 10 6 10 9 8 9 7 11 1 5h2l1-9 6-16 9-12 13-9 11-4 85-1h33l137 1 4 1-1 7-6 12-10 13-11 9-14 6-11 2-38 1-133 1-1 11v26l3 9 8 1 145 1 36 3 14 3 10 5 10 9 6 10 4 11 4 20 1 11v20l-2 20-5 16-8 12-10 8-15 5-24 3-28 2-210 1h-77l-2-3-1-60-1-108-4-11-7-9-8-5-4-1-15-1h-116l-16 2-8 4-8 11-2 9-1 9-1 27-1 133-2 1-44 2-24 1-3-2-1-9v-25l1-64h-2v-18l2-46 2-23 5-19 8-16 7-9 6-7 14-10 14-6 16-5 5-1zm217 125v78l1 1 83 1h98l41-1 7-3 3-3 3-11 1-7v-15l-2-13-2-1-15-1-160-1-20-2-13-4-8-5-10-9-5-4z" fill="#144878"/>
<path transform="translate(1057,1526)" d="m0 0h35l43 1 16 8 10 6 10 9 7 11 5 13 1 8-1 14 1 2h4l-1 20-3 64-210 1-20-1-2-2 1-9 8-16 6-10 8-10 8-8 8-4 115-1 4-1v-15l-2-13-4-12-5-1-26-1h-124l-12 2-9 5-7 8-3 6-1 5-1 23v77l4 13 4 5 6 4 15 4 137 1 35 1 14 2 10 5 8 8 7 12 6 17v7l-2 1-59 1-175 1-4-2-6-9v-2l-6 1-4 3-9 1-11-5-11-8-10-9-8-10-7-14-8-26-3-12v-53l-2-20-2 2-1-7v-15l1-6 2 3 2 7 12-35 9-14 13-13 16-10 10-5 9-2z" fill="#F5C71A"/>
<path transform="translate(1006,74)" d="m0 0h13l34 2 28 4 21 5 20 7 16 7 16 10 12 12 6 10 2 7v10l-4 10-8 11-4 5-10 7-19 10-27 9-25 6-21 3-32 3h-28l-33-3-15-3-31-8-28-11-11-6-10-8-8-9-6-13-1-4v-9l5-12 4-6 7-8 13-9 16-8 12-5 27-7 25-5 24-3z" fill="#134777"/>
<path transform="translate(995,830)" d="m0 0h16l41 2 9 1 11 1 13 6 12 5v2l-11-1-21-4-39-1h-24l-32 1-48 6-27 5h-6l5-5 11-4 2-1 23-2 16-4 10-2 14-3 18-1z" fill="#18426D"/>
<path transform="translate(1166,125)" d="m0 0 4 2 4 11v10l-4 10-8 11-4 5-10 7-19 10-27 9-25 6-21 3-19 2h-22v-2l7-3h12l17-4 14-1 15-3 21-6 11-4 18-7 10-8 8-6 5-6 8-7 3-7 1-8v-11z" fill="#15406B"/>
<path transform="translate(453,593)" d="m0 0 1 4-8 14-7 10-16 23-8 11-8 10-9 11-16 17-15 15-8 7-16 13-17 13-15 10-20 12-17 9-7 3h-5l3-3h3l2-4 4-3 5-2 15-9 17-11 17-12 14-10 17-12 5-6 8-7 5-5 7-9 6-4 5-6 4-3 3-7 4-5 5-4 2-4h2v-2h2l2-5 3-9 10-18 7-9h2l2-4 5-5z" fill="#1B456F"/>
<path transform="translate(1511,329)" d="m0 0h2l8 16 3 11v16l-5 14-8 11-10 10-16 9-16 6-8 1 1-3 8-5 20-18 7-6 9-13 3-6 3-14v-17l-1-5z" fill="#133E69"/>
<path transform="translate(807,878)" d="m0 0h9v2l-23 12-10 7-12 11-13 12-11 9-13 10-14 10-13 9-16 9-1-2 7-8 6-5 10-7 9-6 3-1 2-4 10-7 14-12 6-5 5-5 13-12 11-7 6-4z" fill="#17426C"/>
<path transform="translate(1100,269)" d="m0 0 3 1-2 3h-3v2l-10 3-5 4-5 1h-17l-13 5-4 2-13 1h-18l-2-1-14-1h-13l-21-3-10-2-6-4v-1h14l22 2h57l34-4 12-3z" fill="#15406B"/>
<path transform="translate(818,1562)" d="m0 0 5 2 4 4 5 15 3 11v43l-4-4-6-8-4-16-2-16-1-14-2-8v-7z" fill="#103C68"/>
<path transform="translate(1211,1316)" d="m0 0h6l-2 5-11 14-12 13-13 13-14 11-16 11h-4l2-5 3-3h2l2-4 10-8 7-8 5-7 8-7 5-5 11-10 1-2h2v-2z" fill="#17416C"/>
<path transform="translate(382,382)" d="m0 0h37l16 4 12 5 11 7 8 7 9 12 8 16 4 13v3l-3-1-9-19-6-8-9-10-4-6-6-7-10-6-10-3-9-1h-13l-28 1-12-2 3-3z" fill="#18436D"/>
<path transform="translate(844,360)" d="m0 0 1 3-13 9-16 9-16 8-21 10-5 2h-4l1-6 8-6 17-8 9-4 4-3 7-4 6-3 14-4z" fill="#16416B"/>
<path transform="translate(826,218)" d="m0 0h9l15 4 18 8 9 6 10 9 9 9 7 8 11 7v2l-8-2-12-7v-2h-2v-2l-3-1v-2l-4-2-1-3-5-2-9-8-15-9-11-3-9-4-6-2v-2l-3-1z" fill="#16416C"/>
<path transform="translate(1256,1766)" d="m0 0 2 1 1 11-2 1-16 1h-39l1-5 2-2 11-1h13l21-4z" fill="#123E69"/>
<path transform="translate(833,1707)" d="m0 0 4 1v11l-6 18-3 6-4 1-5-2-1 2v-11l1-7h2l2-11h3l2-5z" fill="#143F6A"/>
<path transform="translate(986,324)" d="m0 0h23l6 3v1l-37 1-15 3-6 2h-16l-7 2h-9l3-5 8-4 10-1h12l15-1 7 1z" fill="#18436D"/>
<path transform="translate(962,78)" d="m0 0h7l-4 4-9 2-9 1-7 3-14 3-6 2-6 3-8 2-15 5-5 4-5 3-4 2-2-2 2-4 18-10 15-6 27-7z" fill="#1B4670"/>
<path transform="translate(542,1874)" d="m0 0 9 1 2 1v3l-7 4-9 2-9 1h-15l-3-2 2-3 18-5 10-1z" fill="#143F6A"/>
<path transform="translate(1616,993)" d="m0 0 2 1-2 4-11 10-14 8-11 5h-3l2-6 8-7 13-5 9-7z" fill="#15406B"/>
<path transform="translate(1305,628)" d="m0 0h41l4 2-6 2-4 1h-18l-11 1h-13l-9-1 1-3z" fill="#16416C"/>
<path transform="translate(1022,324)" d="m0 0 26 2 11 2 8 3v2l-16-1-16-2-57-1v-1l37-1z" fill="#1D4973"/>
<path transform="translate(509,399)" d="m0 0 10 2 6 4 7 6 4 7-6-2-19-10-5-4v-2z" fill="#1A446E"/>
<path transform="translate(1257,1218)" d="m0 0h1l-1 10-7 25-2 4h-2l1-14 5-16 3-7z" fill="#1F4872"/>
<path transform="translate(1656,895)" d="m0 0 2 1v19l-2 13-2 2-1-5-1-14 2-13z" fill="#19436D"/>
<path transform="translate(835,1596)" d="m0 0 2 3 2 12 1 12v19h-1l-2-20-2 2-1-7v-15z" fill="#FDFDFD"/>
<path transform="translate(986,324)" d="m0 0h23l6 3v1h-35l2-3z" fill="#0E3A66"/>
<path transform="translate(877,852)" d="m0 0h8l3 2-8 3-12 3h-5l1-4z" fill="#1D4770"/>
<path transform="translate(857,130)" d="m0 0h2l1 5-2 5v10l-1 3h-2l-2-6v-9l3-7z" fill="#19446E"/>
<path transform="translate(1171,219)" d="m0 0h6v2l-10 5-10 3-4-1v-2l15-6z" fill="#19446F"/>
<path transform="translate(1244,1084)" d="m0 0 2 1 5 15v5l-5-5-3-6v-9z" fill="#113E6A"/>
<path transform="translate(1387,429)" d="m0 0h13l5 4h-20z" fill="#0E3A66"/>
<path transform="translate(828,670)" d="m0 0 5 2 4 6v4l-5-2-3-4z" fill="#17426D"/>
<path transform="translate(861,351)" d="m0 0h7v3l-14 5h-2l2-4z" fill="#244D76"/>
<path transform="translate(885,747)" d="m0 0 5 1 11 5v3l-6-1-6-3v-2l-4-1z" fill="#264E77"/>
<path transform="translate(1244,644)" d="m0 0 4 1-5 5-11 3 2-4z" fill="#133F6B"/>
<path transform="translate(888,342)" d="m0 0 10 1-1 2-8 2h-6l1-3z" fill="#1E4872"/>
<path transform="translate(872,742)" d="m0 0 6 1 5 2-1 2-7-1-3-2z" fill="#1E4872"/>
<path transform="translate(844,863)" d="m0 0 5 1v2l-5 2h-4l2-4z" fill="#0E3C68"/>
<path transform="translate(869,112)" d="m0 0h3v4l-5 3h-2l2-5z" fill="#30567C"/>
<path transform="translate(1118,758)" d="m0 0h5l-1 3-5 2-3-2z" fill="#17426D"/>
<path transform="translate(1441,1029)" d="m0 0" fill="#FDFDFD"/>
</svg>
